# xmcd
#
# Track frame offsets:
#	150
#	19635
#	38437
#	52855
#	77264
#	93192
#	115109
#	128989
#	145860
#	161652
#	181698
#	189928
#	207261
#	223578
#	234561
#	249802
#	269580
#	292326
#	303621
#	320761
#	334555
#
# Disc length: 4762 seconds
#
# Revision: 1
# Processed by: cddbd v1.5.2PL0 Copyright (c) Steve Scherf et al.
# Submitted via: EasyCDDAExtractor 2010.6.0.0
#
DISCID=1d129815
DTITLE=Various Artist - Akella Presents - Country-Blues - vol.31 CD2
DYEAR=2011
DGENRE=Blues
TTITLE0=HANS THEESSINK - Crazy Moon
TTITLE1=RUDY ROTTA - My babe
TTITLE2=DANNY SHIRLEY - Georgia On A Fast Train
TTITLE3=BAR 12 - Soul Shine
TTITLE4=ALBERT LEE and HOGAN'S HEROES - Jitterbug Boogie
TTITLE5=COLIN LINDEN - From The Water
TTITLE6=GEORGE THOROGOOD - Hello Josephine
TTITLE7=BIG HOUSE - Losing My Angels
TTITLE8=MARIA MULDAUR - On A Night Like This
TTITLE9=BRIAN KRAMER and THE COUCH LIZARDS - Let It Go (Dala Delta)
TTITLE10=JOHN FOGERTY - It Ain't Right
TTITLE11=ALAN JACKSON - That's Where I Belong
TTITLE12=DAVE WALKER - The Midnight Special
TTITLE13=HANK WILLIAMS Jr. - Lyin' Jukebox
TTITLE14=GORDIE TENTREES - Daylight
TTITLE15=DAVID JACOBS STRAIN - Traveling Riverside Blues
TTITLE16=ARLEN ROTH - August Nights
TTITLE17=THREE HANKS - I'll Never Get Out of This
TTITLE18=BUDDAHEADS - Too Little, Too Late
TTITLE19=NORAH JONES - Creepin In
TTITLE20=MILLER ANDERSON - House of a Rising Sun
EXTD=
EXTT0=
EXTT1=
EXTT2=
EXTT3=
EXTT4=
EXTT5=
EXTT6=
EXTT7=
EXTT8=
EXTT9=
EXTT10=
EXTT11=
EXTT12=
EXTT13=
EXTT14=
EXTT15=
EXTT16=
EXTT17=
EXTT18=
EXTT19=
EXTT20=
PLAYORDER=
